<?xml version="1.0" encoding="UTF-8"?>
<svg width="60px" height="27px" viewBox="0 0 60 27" version="1.1" xmlns="http://www.w3.org/2000/svg" xmlns:xlink="http://www.w3.org/1999/xlink">
    <!-- Generator: Sketch 51.3 (57544) - http://www.bohemiancoding.com/sketch -->
    <title>marvel logo</title>
    <desc>Created with Sketch.</desc>
    <defs></defs>
    <g id="marvel-logo" stroke="none" stroke-width="1" fill="none" fill-rule="evenodd">
        <path d="M50.925,16.73 C29.1,15.002 11.026,20.337 6.976,22.291 C4.726,23.343 4.576,24.621 4.876,25.372 C5.101,25.973 6.226,26.274 7.426,25.673 C16.126,21.014 33.675,17.332 50.925,18.384 C51.75,18.309 52.125,16.881 50.925,16.731 L50.925,16.73 Z M56.325,10.192 C55.35,11.244 54.075,11.996 53.625,11.62 C53.175,11.244 53.625,10.042 53.625,10.042 C55.8,8.689 60,5.082 60,2.377 C60,-0.178 57.75,-0.929 55.35,1.4 C53.7,2.978 52.125,5.909 51.3,8.84 C50.1,10.042 48.15,11.62 46.35,11.62 C45.375,11.62 45.15,10.944 45.3,10.117 C46.8,10.042 50.925,8.915 50.925,5.383 C50.85,3.88 49.725,3.354 48.6,3.354 C46.725,3.354 44.325,5.308 43.125,8.013 C42.825,7.938 42.45,7.863 42.15,7.637 C42.525,6.81 42.825,6.059 42.825,5.608 C43.05,4.18 42.45,3.278 41.325,3.354 C40.575,3.429 39.675,4.03 39.525,5.608 C39.375,6.66 39.9,7.862 39.9,7.862 C39.525,9.44 37.5,11.469 36.75,11.394 C36.075,11.394 36.9,8.463 37.575,6.359 C37.95,5.908 38.325,5.382 38.55,4.931 C38.7,4.255 38.475,3.954 38.175,3.729 C37.725,3.353 36.225,3.504 35.4,4.931 C35.175,5.307 34.95,5.908 34.65,6.584 C34.05,7.26 33.15,8.237 32.85,8.087 C32.475,7.862 33.75,6.058 33.525,5.081 C33.375,4.179 32.625,3.728 31.875,3.803 C30.75,3.953 29.25,6.283 29.25,6.283 C29.25,6.283 29.55,5.607 29.55,5.005 C29.475,4.178 27.9,3.803 27.15,5.381 C26.85,5.982 26.4,8.011 25.95,9.965 C25.575,10.641 24.3,12.745 23.325,12.821 C22.5,12.896 23.475,9.139 23.625,8.913 C24.075,8.237 24.675,6.734 24.6,6.057 C24.525,5.155 23.925,5.005 23.4,5.08 C22.575,5.23 22.2,6.057 22.2,6.057 C22.2,6.057 21.75,5.381 20.625,5.456 C17.175,5.832 14.925,11.844 15.225,14.699 C15.375,16.202 16.2,17.179 17.475,17.029 C18.975,16.879 20.25,14.624 20.25,14.624 C20.25,14.624 20.625,16.428 22.2,16.202 C23.25,16.052 24.375,15.075 25.275,14.098 C25.2,14.248 25.2,14.474 25.2,14.474 C24.975,15.977 27.525,15.827 27.675,14.624 C28.425,8.838 30.3,6.433 30.9,6.433 C31.35,6.433 29.7,9.138 30.675,10.19 C31.425,11.092 32.7,10.34 33.825,9.439 C33.675,10.19 33.525,10.942 33.525,11.693 C33.45,13.346 34.05,14.624 35.625,14.549 C37.725,14.474 39.9,11.919 41.4,9.439 C41.775,9.664 42.15,9.815 42.6,9.965 C42.45,10.566 42.45,11.167 42.45,11.769 C42.6,13.648 43.875,14.399 45.375,14.324 C47.175,14.249 49.2,12.896 50.7,11.694 C50.7,11.769 50.7,11.844 50.625,11.844 C50.475,12.746 50.7,14.474 51.975,14.474 C53.475,14.624 56.1,13.046 57.375,11.393 C58.2,10.341 57.15,9.289 56.325,10.191 L56.325,10.192 Z M57.75,2.377 C57.9,2.377 57.975,2.527 57.975,2.753 C57.975,4.331 53.925,7.788 53.925,7.788 C53.925,7.788 56.625,2.377 57.75,2.377 Z M48,5.759 C48.375,5.759 48.45,5.909 48.45,6.285 C48.45,7.187 47.25,7.863 45.825,7.938 C46.575,6.811 47.4,5.759 48,5.759 Z M20.926,8.314 C20.776,9.291 19.126,13.649 18.151,13.649 C16.951,13.724 18.751,7.487 20.626,7.487 C21.076,7.562 21.076,7.788 20.926,8.314 Z M6.226,9.516 C7.351,9.516 5.326,15.302 5.551,17.857 C5.776,20.412 8.626,19.661 8.401,18.233 C8.101,15.753 9.751,7.938 11.476,7.938 C12.676,7.938 10.126,13.273 10.651,16.73 C11.026,18.984 14.026,18.233 13.651,16.88 C12.676,12.446 15.826,8.163 15.451,5.082 C15.301,3.804 14.476,3.053 13.651,3.053 C10.801,3.053 8.626,8.764 8.626,8.764 C8.626,8.764 8.851,5.533 6.601,5.382 C3.301,5.157 -0.074,13.423 0.001,20.937 C0.076,23.342 3.076,22.966 2.851,21.012 C2.626,17.48 4.576,9.514 6.226,9.514 L6.226,9.516 Z" id="Shape" fill="#1BB5FF" fill-rule="nonzero"></path>
    </g>
</svg>