<svg version="1.1" xmlns="http://www.w3.org/2000/svg">
  <defs>

    <symbol id="request" viewBox="0 0 120 120">
      <path d="M78.9506 11.7145l-16.018 20.5346 22.3021 14.9315L64.4004 92.509l1.6771-34.2428-22.9957-21.5725 6.3814-20.7162C25.8972 1.0385 1 10.747 1 38.7974 1.0037 71.1014 60.0028 112 60.0028 112S119 71.1088 119 38.803c.0037-24.7253-19.3348-35.1529-40.0494-27.0885z" />
    </symbol>

    <symbol id="heartbroken" viewBox="0 0 120 120">
      <path d="M116.8273 39.4701c4.23 4.2304 4.2306 11.113-.0003 15.3438l-62.0135 62.0133c-4.23 4.2305-11.1127 4.2303-15.3436 0L4.1728 81.5297c-4.2304-4.2304-4.2304-11.1128 0-15.3436l62.014-62.013c4.23-4.2308 11.1125-4.2308 15.3433 0l35.2972 35.297zM45.9759 112.544v-36.161H9.265c.0103.0103.0125.0228.022.0328l35.2972 35.2968c.404.4038.886.6581 1.3918.8314zM11.439 69.1496l56.1336.0012c.8441 0 1.5783-.7346 1.5787-1.5785V11.4378L11.439 69.1496zm41.7691 39.0542l54.9946-54.9946-31.8193-.0013v14.3646c-.0002 2.3551-.9164 4.5676-2.5797 6.2309-1.6631 1.663-3.876 2.5797-6.2307 2.5797H53.208v31.8207zm23.175-62.2282l36.1602.0013c-.1722-.5073-.4268-.989-.8301-1.3926L76.4159 9.2873c-.01-.01-.023-.0122-.0328-.0223v36.7106zM4.5243 16.3322c-1.9464 0-3.524-1.5776-3.524-3.5237 0-1.9463 1.5776-3.5239 3.524-3.5239h37.0386c1.946 0 3.5239 1.5778 3.5239 3.524 0 1.946-1.578 3.5236-3.524 3.5236H4.5243zm0 13.8434c-1.9464 0-3.524-1.5776-3.524-3.524 0-1.946 1.5776-3.5236 3.524-3.5236h23.2257c1.9461 0 3.5237 1.5778 3.5237 3.5237 0 1.9463-1.5776 3.5239-3.5237 3.5239H4.5242zm0 13.4241c-1.9464 0-3.524-1.5778-3.524-3.5239 0-1.946 1.5776-3.5238 3.524-3.5238h14.9956c1.9461 0 3.524 1.5775 3.524 3.5238 0 1.9464-1.5781 3.524-3.524 3.524H4.5242zm14.9956 64.7952c1.9461 0 3.524 1.5778 3.524 3.5239 0 1.9463-1.5781 3.5239-3.524 3.5239H4.5242c-1.9464 0-3.524-1.5778-3.524-3.5239 0-1.946 1.5776-3.5239 3.524-3.5239h14.9956z" />
    </symbol>

  </defs>
</svg>
