<svg version="1.1" xmlns="http://www.w3.org/2000/svg">
  <defs>

    <symbol id="arrow" viewBox="0 0 14 14">
      <path d="M12.1137 7.9304H0V6.975h12.1137L7.6793 2.6756 8.376 2 14 7.4527 8.2785 13l-.6968-.6756z"/>
    </symbol>

    <symbol id="arrowback" viewBox="0 0 14 14">
      <path transform="scale(-1, 1) translate(-14, 0)" d="M12.1137 7.9304H0V6.975h12.1137L7.6793 2.6756 8.376 2 14 7.4527 8.2785 13l-.6968-.6756z"/>
    </symbol>

    <symbol id="lnkdin" viewBox="0 0 30 30">
      <path d="M25.2278 3H4.7733C3.7939 3 3 3.7696 3 4.7195v20.5602C3 26.2297 3.7941 27 4.7733 27h20.4545C26.207 27 27 26.2292 27 25.2797V4.7195C27 3.77 26.207 3 25.2278 3zM10.2761 23.0896H6.65V12.254h3.6262v10.8357zm-1.8127-12.316H8.439c-1.216 0-2.0043-.8316-2.0043-1.8728 0-1.0621.8114-1.8712 2.0515-1.8712 1.2403 0 2.0032.8089 2.0273 1.8712 0 1.0414-.7867 1.8728-2.0501 1.8728zm14.8842 12.316h-3.625v-5.7974c0-1.4568-.5253-2.4508-1.8362-2.4508-1.003 0-1.5982.6706-1.8597 1.318-.0968.2313-.1208.5547-.1208.8776v6.0524h-3.6244s.0474-9.8194 0-10.8356h3.625V13.79c.4811-.7382 1.341-1.7912 3.266-1.7912 2.386 0 4.1751 1.5478 4.1751 4.8776v6.2132zM15.883 13.872a1.3642 1.3642 0 0 1 .056-.0819v.0819h-.056z" fill-rule="evenodd"/>
    </symbol>

    <symbol id="instgram" viewBox="0 0 30 30">
      <path d="M26.0695 3.9054C25.466 3.3017 24.7427 3 23.9001 3H6.075c-.843 0-1.566.3018-2.1698.9054C3.3017 4.509 3 5.2321 3 6.0748v17.8249c0 .8426.3017 1.566.9053 2.1694.6037.6036 1.327.9055 2.1697.9055h17.8248c.8425 0 1.566-.302 2.1696-.9055.6037-.6035.9051-1.3268.9051-2.1694V6.0747c0-.8428-.3014-1.5656-.905-2.1693zm-14.4612 7.7338c.9417-.9104 2.0733-1.3658 3.3949-1.3658 1.3317 0 2.4685.4554 3.4103 1.3658.9419.9105 1.4125 2.011 1.4125 3.3013 0 1.29-.4706 2.3906-1.4125 3.3009-.9418.9107-2.0782 1.366-3.4103 1.366-1.3215 0-2.453-.4557-3.3949-1.366-.9418-.9104-1.4127-2.0108-1.4127-3.301s.4709-2.3906 1.4127-3.3012zM24.2591 23.26c0 .2703-.094.4966-.281.6788-.1878.182-.4111.2731-.6715.2731H6.6214c-.2705 0-.497-.091-.679-.2731-.1822-.1819-.2732-.4085-.2732-.6788V13.1453h2.2007c-.208.6557-.312 1.3374-.312 2.0448 0 1.9983.7283 3.702 2.185 5.1122 1.457 1.4097 3.2103 2.1149 5.2602 2.1149 1.3528 0 2.6014-.3227 3.7464-.9678 1.1446-.6455 2.0493-1.522 2.7157-2.6303.666-1.1082.999-2.318.999-3.629 0-.7074-.1043-1.3889-.3124-2.0447h2.1074V23.26h-.0001zm0-13.9388c0 .3018-.104.5568-.3125.7649-.208.2082-.4628.3122-.7648.3122H20.466c-.3016 0-.5568-.104-.7648-.3122-.208-.2081-.312-.463-.312-.7649V6.7461c0-.2914.104-.5437.312-.757.208-.2134.4633-.3201.7648-.3201h2.7158c.302 0 .5568.1067.7648.32.2084.2134.3125.4657.3125.757v2.5752z" fill-rule="evenodd"/>
    </symbol>

    <symbol id="topcoder" viewBox="0 0 30 30">
      <path d="M15 15.1c.3-.1.5-.2.7-.3 1.7-.7 4-1.4 6.2-1.7-2-1.9-4.5-3.1-6.9-3.1s-4.9 1.2-6.9 3.1c2.2.4 4.5 1.1 6.2 1.7.2.1.5.2.7.3zM14.3 15.5s-.1 0 0 0c-.1 0-.1 0 0 0-.1 0-.2-.1-.3-.1-.1 0-.2-.1-.3-.1-.1 0-.2-.1-.3-.1-.1 0-.2-.1-.3-.1-.1 0-.2-.1-.3-.1-.2-.1-.5-.2-.7-.2-.1 0-.2-.1-.4-.1-.3-.1-.5-.1-.8-.2-.3-.1-.5-.1-.8-.2-.4-.3-.6-.3-.7-.3-.3-.1-.5-.1-.8-.2-.3-.1-.6-.1-.8-.2-1.7 1.6-3 3.8-3.6 6.3v.1c.8 0 1.6-.4 1.8-.5 3-1.7 6.6-3.5 8.8-3.8-.3-.1-.4-.2-.5-.2z"/>
      <path d="M3.5 19.7c.6-2.5 1.9-4.6 3.6-6.3-3.3-.6-6.3-.5-7 1.1-.4 1.2.5 2.9 2 4.6.4.5.9.8 1.4.8v-.1-.1zM15.7 15.5s.1 0 0 0c.1 0 .1 0 0 0 .1 0 .2-.1.3-.1.1 0 .2-.1.3-.1.1 0 .2-.1.3-.1.1 0 .2-.1.3-.1.1 0 .2-.1.3-.1.2-.1.5-.2.7-.2.1 0 .2-.1.4-.1.3-.1.5-.1.8-.2.3-.1.5-.1.8-.2.1 0 .3-.1.4-.1.3-.1.5-.1.8-.2.3-.1.6-.1.8-.2 1.7 1.6 3 3.8 3.6 6.3v.1c-.8 0-1.6-.4-1.8-.5-3-1.7-6.6-3.5-8.8-3.8.6-.3.7-.4.8-.4z"/>
      <path d="M26.5 19.7c-.6-2.5-1.9-4.6-3.6-6.3 3.3-.6 6.3-.5 7 1.1.4 1.2-.5 2.9-2 4.6-.4.5-.9.8-1.4.8v-.1-.1z"/>
    </symbol>

    <symbol id="github" viewBox="0 0 30 30">
      <path d="M14.9985 3C8.373 3 3 8.394 3 15.048c0 5.322 3.438 9.837 8.208 11.4315.6.111.819-.261.819-.5805 0-.2865-.0105-1.044-.0165-2.049-3.3375.7275-4.0425-1.6155-4.0425-1.6155-.5445-1.392-1.332-1.7625-1.332-1.7625-1.0905-.747.081-.732.081-.732 1.2045.0855 1.8375 1.242 1.8375 1.242 1.071 1.8405 2.8095 1.3095 3.4935 1.0005.108-.7785.4185-1.3095.762-1.611-2.664-.3045-5.466-1.338-5.466-5.9535 0-1.3155.468-2.391 1.236-3.234-.1245-.3045-.5355-1.53.117-3.1875 0 0 1.008-.324 3.3 1.2345.957-.267 1.983-.4005 3.0045-.405 1.0185.006 2.046.138 3.0045.4065 2.2905-1.5585 3.297-1.2345 3.297-1.2345.654 1.659.243 2.883.12 3.1875.7695.843 1.233 1.9185 1.233 3.234 0 4.6275-2.805 5.646-5.478 5.9445.4305.372.8145 1.107.8145 2.2305 0 1.611-.015 2.91-.015 3.3045 0 .3225.216.6975.825.579C23.565 24.882 27 20.3685 27 15.048 27 8.394 21.627 3 14.9985 3z" fill-rule="evenodd"/>
    </symbol>

    <symbol id="search-engine" viewBox="0 0 36 36">
      <path d="M30 2.5604V5.25a.75.75 0 0 0 .75.75h1.5v1.5h-1.5c-1.2427 0-2.25-1.0074-2.25-2.25V1.5h-9.75V0h10.5c.1988 0 .3896.079.5302.2197l6 6A.7502.7502 0 0 1 36 6.75v27c0 1.2426-1.0074 2.25-2.25 2.25h-19.5v-1.5h19.5a.75.75 0 0 0 .75-.75V7.0605l-4.5-4.5zM11.25 24.128c.8739.3089 1.5 1.1423 1.5 2.122v7.5c0 1.2426-1.0074 2.25-2.25 2.25-1.2427 0-2.25-1.0074-2.25-2.25v-7.5c0-.9797.6261-1.8131 1.5-2.122v-3.1544C4.301 20.589 0 16.0468 0 10.5 0 4.701 4.701 0 10.5 0S21 4.701 21 10.5c-.006 5.5442-4.3037 10.083-9.75 10.4728v3.1552zM10.5 19.5c4.9706 0 9-4.0294 9-9-.0054-4.9684-4.0317-8.9947-9-9-4.9706 0-9 4.0294-9 9 0 4.9705 4.0294 9 9 9zm-.75-9.75h1.5v1.5h-1.5v-1.5zm3.75 0H15v1.5h-1.5v-1.5zm-7.5 0h1.5v1.5H6v-1.5zm25.5 1.5a.75.75 0 0 1 .75.75v7.5a.75.75 0 0 1-.75.75h-12v-1.5h11.25v-6h-7.5v-1.5h8.25zM17.25 22.5h15V24h-15v-1.5zm13.5 3.75h1.5v1.5h-1.5v-1.5zm-3 0h1.5v1.5h-1.5v-1.5z" fill-rule="evenodd"/>
    </symbol>

    <symbol id="city" viewBox="0 0 36 36">
      <path d="M22.8 23.4v1.2c0 .3312-.2688.6-.6.6a.6002.6002 0 0 1-.6-.6v-1.2c0-.3312.2689-.6.6-.6.3312 0 .6.2688.6.6zm-.6 6.6c.3312 0 .6.2688.6.6V33c0 .3311-.2689.6-.6.6a.6002.6002 0 0 1-.6-.6v-2.4c0-.3312.2688-.6.6-.6zm3-13.8v1.2c0 .3312-.2688.6-.6.6a.6002.6002 0 0 1-.6-.6v-1.2c0-.3312.2689-.6.6-.6.3312 0 .6.2688.6.6zm-2.4 3.6V21c0 .3312-.2688.6-.6.6a.6002.6002 0 0 1-.6-.6v-1.2c0-.3312.2689-.6.6-.6.3312 0 .6.2688.6.6zm-.6 6.6c.3312 0 .6.2688.6.6v1.2c0 .3312-.2689.6-.6.6a.6002.6002 0 0 1-.6-.6V27c0-.3312.2689-.6.6-.6zm3-6.6V21c0 .3312-.2688.6-.6.6a.6002.6002 0 0 1-.6-.6v-1.2c0-.3312.2689-.6.6-.6.3312 0 .6.2688.6.6zm-4.8-3.6v1.2c0 .3312-.2688.6-.6.6a.6002.6002 0 0 1-.6-.6v-1.2c0-.3312.2688-.6.6-.6s.6.2688.6.6zm2.4 0v1.2c0 .3312-.2688.6-.6.6a.6002.6002 0 0 1-.6-.6v-1.2c0-.3312.2689-.6.6-.6.3312 0 .6.2688.6.6zm2.4-6c0 .3312-.2688.6-.6.6a.6002.6002 0 0 1-.6-.6V9c0-.3312.2689-.6.6-.6.3312 0 .6.2688.6.6v1.2zm-4.8 9.6V21c0 .3312-.2688.6-.6.6a.6002.6002 0 0 1-.6-.6v-1.2c0-.3312.2688-.6.6-.6s.6.2688.6.6zM27.6 9v1.2c0 .3312-.2688.6-.6.6a.6002.6002 0 0 1-.6-.6V9c0-.3312.2688-.6.6-.6s.6.2688.6.6zm-7.8 13.8c.3312 0 .6.2688.6.6v1.2c0 .3312-.2688.6-.6.6a.6002.6002 0 0 1-.6-.6v-1.2c0-.3312.2688-.6.6-.6zm9.6 3.6c.3312 0 .6.2688.6.6v1.2c0 .3312-.2689.6-.6.6a.6002.6002 0 0 1-.6-.6V27c0-.3312.2689-.6.6-.6zm0 3.6c.3312 0 .6.2688.6.6V33c0 .3311-.2689.6-.6.6a.6002.6002 0 0 1-.6-.6v-2.4c0-.3312.2688-.6.6-.6zm2.4-7.2c.3312 0 .6.2688.6.6v1.2c0 .3312-.2688.6-.6.6a.6002.6002 0 0 1-.6-.6v-1.2c0-.3312.2689-.6.6-.6zm-9.6-12a.6002.6002 0 0 1-.6-.6v-3a.5996.5996 0 0 1 .4542-.582L28.8 4.9314V4.2c0-.3312.2688-.6.6-.6.3311 0 .6.2688.6.6v11.5842l4.4106 1.6536A.6012.6012 0 0 1 34.8 18v6.6c0 .3312-.2688.6-.6.6a.6002.6002 0 0 1-.6-.6v-6.1842l-4.4106-1.6536A.6012.6012 0 0 1 28.8 16.2V6.1686l-6 1.5V10.2c0 .3312-.2689.6-.6.6zm10.2 9V21c0 .3312-.2688.6-.6.6a.6002.6002 0 0 1-.6-.6v-1.2c0-.3312.2689-.6.6-.6.3312 0 .6.2688.6.6zm-2.4 0V21c0 .3312-.2688.6-.6.6a.6002.6002 0 0 1-.6-.6v-1.2c0-.3312.2689-.6.6-.6.3312 0 .6.2688.6.6zM25.2 27v1.2c0 .3312-.2688.6-.6.6a.6002.6002 0 0 1-.6-.6V27c0-.3312.2689-.6.6-.6.3312 0 .6.2688.6.6zm4.8-3.6v1.2c0 .3312-.2688.6-.6.6a.6002.6002 0 0 1-.6-.6v-1.2c0-.3312.2689-.6.6-.6.3312 0 .6.2688.6.6zM24.6 30c.3312 0 .6.2688.6.6V33c0 .3311-.2688.6-.6.6a.6002.6002 0 0 1-.6-.6v-2.4c0-.3312.2689-.6.6-.6zm.6-6.6v1.2c0 .3312-.2688.6-.6.6a.6002.6002 0 0 1-.6-.6v-1.2c0-.3312.2689-.6.6-.6.3312 0 .6.2688.6.6zM27 33.6a.6003.6003 0 0 1-.6-.6V14.2687l-8.4-2.1V24.6c0 .3311-.2689.6-.6.6a.6002.6002 0 0 1-.6-.6V11.4a.5989.5989 0 0 1 .231-.4728.601.601 0 0 1 .5148-.1092l9.6 2.4a.6002.6002 0 0 1 .4542.582V33c0 .3312-.2688.6-.6.6zm-13.8-21v1.2c0 .3312-.2688.6-.6.6a.6002.6002 0 0 1-.6-.6v-1.2c0-.3312.2688-.6.6-.6s.6.2688.6.6zm0-3.6v1.2c0 .3312-.2688.6-.6.6a.6002.6002 0 0 1-.6-.6V9c0-.3312.2688-.6.6-.6s.6.2688.6.6zM7.8 26.4c.3312 0 .6.2688.6.6v1.2c0 .3312-.2689.6-.6.6a.6002.6002 0 0 1-.6-.6V27c0-.3312.2689-.6.6-.6zM3 21.6a.6002.6002 0 0 1-.6-.6v-3.6c0-.3311.2688-.6.6-.6h7.2c.3311 0 .6.2689.6.6V33c0 .3311-.2689.6-.6.6a.6002.6002 0 0 1-.6-.6V18h-6v3c0 .3312-.2688.6-.6.6zm6.6-9c0-.3312.2688-.6.6-.6.3311 0 .6.2688.6.6v1.2c0 .3312-.2689.6-.6.6a.6002.6002 0 0 1-.6-.6v-1.2zm3.6-7.2v1.2c0 .3312-.2688.6-.6.6a.6002.6002 0 0 1-.6-.6V5.4c0-.3312.2688-.6.6-.6s.6.2688.6.6zM7.8 30c.3312 0 .6.2688.6.6V33c0 .3311-.2689.6-.6.6a.6002.6002 0 0 1-.6-.6v-2.4c0-.3312.2688-.6.6-.6zm27.6 4.8c.3312 0 .6.2689.6.6 0 .3312-.2689.6-.6.6H.6a.6003.6003 0 0 1-.6-.6c0-.3312.2688-.6.6-.6h1.8v-6.0606C1.0326 28.4604 0 27.249 0 25.8c0-1.6542 1.3458-3 3-3s3 1.3458 3 3c0 1.449-1.0326 2.6604-2.4 2.9394V34.8h13.2v-2.4606c-1.3675-.279-2.4-1.4904-2.4-2.9394 0-1.6543 1.3458-3 3-3s3 1.3458 3 3c0 1.449-1.0326 2.6604-2.4 2.9394V34.8h15v-3.6852c-1.032-.2683-1.8-1.2-1.8-2.3149 0-1.3235 1.0765-2.4 2.4-2.4 1.3236 0 2.4 1.0764 2.4 2.4 0 1.1148-.768 2.0467-1.8 2.3149V34.8h1.2zm-34.2-9c0 .9924.8076 1.8 1.8 1.8.9924 0 1.8-.8076 1.8-1.8 0-.9924-.8076-1.8-1.8-1.8-.9924 0-1.8.8076-1.8 1.8zm14.4 3.6c0 .9924.8076 1.8 1.8 1.8.9924 0 1.8-.8076 1.8-1.8 0-.9924-.8076-1.8-1.8-1.8-.9924 0-1.8.8076-1.8 1.8zm16.8-.6c0 .6618.5382 1.2 1.2 1.2.6619 0 1.2-.5382 1.2-1.2 0-.6619-.5381-1.2-1.2-1.2-.6618 0-1.2.5382-1.2 1.2zM4.8 30.6c0-.3312.2688-.6.6-.6s.6.2688.6.6V33c0 .3311-.2688.6-.6.6a.6002.6002 0 0 1-.6-.6v-2.4zm3.6-10.8V21c0 .3312-.2688.6-.6.6a.6002.6002 0 0 1-.6-.6v-1.2c0-.3312.2689-.6.6-.6.3312 0 .6.2688.6.6zm0 3.6v1.2c0 .3312-.2688.6-.6.6a.6002.6002 0 0 1-.6-.6v-1.2c0-.3312.2689-.6.6-.6.3312 0 .6.2688.6.6zm-3.6-3.6c0-.3312.2688-.6.6-.6s.6.2688.6.6V21c0 .3312-.2688.6-.6.6a.6002.6002 0 0 1-.6-.6v-1.2zm8.4 3.6v1.2c0 .3312-.2688.6-.6.6a.6002.6002 0 0 1-.6-.6v-1.2c0-.3312.2688-.6.6-.6s.6.2688.6.6zm2.4-7.2v1.2c0 .3312-.2688.6-.6.6a.6002.6002 0 0 1-.6-.6v-1.2c0-.3312.2689-.6.6-.6.3312 0 .6.2688.6.6zm0-3.6v1.2c0 .3312-.2688.6-.6.6a.6002.6002 0 0 1-.6-.6v-1.2c0-.3312.2689-.6.6-.6.3312 0 .6.2688.6.6zm0 7.2V21c0 .3312-.2688.6-.6.6a.6002.6002 0 0 1-.6-.6v-1.2c0-.3312.2689-.6.6-.6.3312 0 .6.2688.6.6zm-.6 3c.3312 0 .6.2688.6.6v1.2c0 .3312-.2689.6-.6.6a.6002.6002 0 0 1-.6-.6v-1.2c0-.3312.2688-.6.6-.6zM15.6 9v1.2c0 .3312-.2688.6-.6.6a.6002.6002 0 0 1-.6-.6V9c0-.3312.2689-.6.6-.6.3312 0 .6.2688.6.6zm-2.4 18v1.2c0 .3312-.2688.6-.6.6a.6002.6002 0 0 1-.6-.6V27c0-.3312.2688-.6.6-.6s.6.2688.6.6zM7.8 15.6a.6001.6001 0 0 1-.6-.6v-4.8001c0-.2274.1285-.435.3319-.537L9.6 8.6291V3.5999c0-.2274.1284-.435.3319-.537L13.2 1.4293V.6c0-.3312.2689-.6.6-.6.3312 0 .6.2688.6.6v.8292l3.2682 1.6338A.6006.6006 0 0 1 18 3.6V9c0 .3312-.2689.6-.6.6a.6002.6002 0 0 1-.6-.6V3.9708l-3-1.5-3 1.5V9a.6006.6006 0 0 1-.3319.537L8.4 10.5708V15c0 .3312-.2689.6-.6.6zm5.4 4.2V21c0 .3312-.2688.6-.6.6a.6002.6002 0 0 1-.6-.6v-1.2c0-.3312.2688-.6.6-.6s.6.2688.6.6zM12.6 30c.3312 0 .6.2688.6.6V33c0 .3311-.2688.6-.6.6a.6002.6002 0 0 1-.6-.6v-2.4c0-.3312.2688-.6.6-.6zm3-24.6v1.2c0 .3312-.2688.6-.6.6a.6002.6002 0 0 1-.6-.6V5.4c0-.3312.2689-.6.6-.6.3312 0 .6.2688.6.6zm-2.4 10.8v1.2c0 .3312-.2688.6-.6.6a.6002.6002 0 0 1-.6-.6v-1.2c0-.3312.2688-.6.6-.6s.6.2688.6.6z" fill-rule="evenodd"/>
    </symbol>

    <symbol id="page-view" viewBox="0 0 36 36">
      <path d="M35.2485 0c.4044 0 .7322.328.7322.7322v34.5164a.7323.7323 0 0 1-.7322.7322H.7322A.7323.7323 0 0 1 0 35.2486V.7322C0 .3279.328 0 .7322 0h34.5163zM1.4645 34.5164h33.0518V7.8092H3.9565a.7322.7322 0 0 1 0-1.4644h30.5598V1.4644H1.4644v33.052zm2.431-29.8802a.7398.7398 0 0 1-.5175-.2136.7398.7398 0 0 1-.2135-.5174c0-.1928.078-.382.2135-.5186a.742.742 0 0 1 .5174-.2136c.1929 0 .382.0781.5187.2136a.7432.7432 0 0 1 .2135.5186.7403.7403 0 0 1-.2135.5174.7427.7427 0 0 1-.5187.2136zm2.4406.0012a.7338.7338 0 0 1-.5174-.2148.7386.7386 0 0 1-.2148-.5186.738.738 0 0 1 .2148-.5174.7336.7336 0 0 1 .5174-.2148c.1928 0 .382.078.5174.2148a.7384.7384 0 0 1 .2148.5174.7391.7391 0 0 1-.2148.5186.7336.7336 0 0 1-.5174.2148zm2.4396-.0012a.7398.7398 0 0 1-.5174-.2136.7427.7427 0 0 1-.2136-.5186.742.742 0 0 1 .2136-.5174.7398.7398 0 0 1 .5174-.2136c.1927 0 .382.0781.5186.2136a.7384.7384 0 0 1 .2148.5174.7391.7391 0 0 1-.2148.5186.7429.7429 0 0 1-.5186.2136zm21.3042 15.3137a.7325.7325 0 0 1 .3743.9656c-2.1805 4.9403-7.0729 8.1325-12.4637 8.1325-5.3909 0-10.2832-3.1923-12.4637-8.1325a.7325.7325 0 0 1 0-.5914c2.1805-4.9403 7.0728-8.1324 12.4637-8.1324 3.821 0 7.49 1.6225 10.066 4.4518a.7323.7323 0 0 1-1.0828.986c-2.2992-2.5252-5.5735-3.9735-8.9832-3.9735-4.7027 0-8.9806 2.7224-10.9888 6.9637 2.0082 4.2412 6.286 6.9636 10.9888 6.9636 4.811 0 9.1774-2.8493 11.1239-7.2593a.7325.7325 0 0 1 .9655-.3741zm-17.1989.6698c0-2.8174 2.292-5.1094 5.1094-5.1094 2.8172 0 5.1093 2.2921 5.1093 5.1094s-2.292 5.1093-5.1093 5.1093c-2.8173 0-5.1094-2.292-5.1094-5.1093zm8.7544 0c0-2.0099-1.635-3.645-3.645-3.645-2.0098 0-3.6448 1.6351-3.6448 3.645 0 2.0098 1.635 3.645 3.6449 3.645s3.6449-1.6352 3.6449-3.645z" fill-rule="evenodd"/>
    </symbol>

    <symbol id="team" viewBox="0 0 36 36">
      <path d="M34.3131 33.6716a.6642.6642 0 1 1 0 1.3284H2.6643a.6641.6641 0 1 1 0-1.3284h5.2685V17.359a.6642.6642 0 1 1 1.3284 0v16.3127h1.6327v-7.26a.6642.6642 0 1 1 1.3284 0v7.26h1.8094v-8.7812c-1.933-.1134-3.47-1.6823-3.47-3.5953v-6.4364c0-1.0213.2162-2.0223.6298-2.947-2.791.229-4.99 2.4953-4.99 5.2498v3.7666a.6642.6642 0 1 1-1.3285 0v-3.7666c0-2.783 1.7803-5.169 4.2913-6.1373-.7387-.6447-1.2068-1.592-1.2068-2.6473 0-1.9377 1.5765-3.5142 3.5142-3.5142a3.52 3.52 0 0 1 1.6767.4252.6643.6643 0 0 1-.6345 1.1671 2.1877 2.1877 0 0 0-1.0421-.2638c-1.2053 0-2.1859.9805-2.1859 2.1858 0 1.2053.9806 2.1858 2.2222 2.1877a6.921 6.921 0 0 1 .1487-.0019c.1046 0 .2096.0028.3148.0075.8963-1.225 2.1306-2.1355 3.539-2.6437-.8841-.7149-1.4509-1.8074-1.4509-3.0302C14.0596 2.7479 15.8076 1 17.956 1c2.1485 0 3.8963 1.7479 3.8965 3.8964 0 1.1663-.5157 2.2137-1.3303 2.9284 1.5343.4834 2.8814 1.436 3.841 2.7493.0354-.002.0708-.0032.1903-.0108 1.2053-.0026 2.1838-.9853 2.1812-2.1905-.0026-1.2053-.9834-2.1818-2.1906-2.1812a2.1611 2.1611 0 0 0-1.0072.2477.6643.6643 0 0 1-.616-1.177c.4964-.2598 1.0568-.3978 1.6279-.399 1.9343 0 3.51 1.5715 3.5141 3.5067.0022 1.003-.419 1.9094-1.0939 2.5518a6.7884 6.7884 0 0 1 2.5631 1.5565c1.2886 1.2443 2.0004 2.9024 2.0041 4.6688l.0122 3.7788a.6642.6642 0 1 1-1.3284.0042l-.0122-3.7795c-.0029-1.4046-.5706-2.7243-1.5984-3.7168-.9393-.907-2.1601-1.4406-3.4717-1.5282a7.2092 7.2092 0 0 1 .6325 2.9531v6.4364c0 1.8759-1.4782 3.4208-3.3581 3.587v8.7895h1.6127l-.0171-7.2583c-.001-.3668.2958-.6648.6642-.6657a.6641.6641 0 0 1 .6641.6626l.017 7.2614h1.9291l-.0348-16.318a.6641.6641 0 1 1 1.3283-.0029l.0348 16.321h5.7027zM15.388 4.8964c0 1.416 1.152 2.568 2.568 2.568 1.4159 0 2.5679-1.152 2.5679-2.568 0-1.416-1.152-2.568-2.568-2.568-1.416 0-2.568 1.152-2.568 2.568zm6.3598 9.522a.6641.6641 0 0 1 .6642.6642v8.4634c1.1459-.1574 2.0297-1.1065 2.0297-2.2509v-6.4363c0-1.1464-.3327-2.2627-.962-3.2282-1.1583-1.777-3.1448-2.8378-5.3139-2.8378-2.1655 0-4.1503 1.058-5.3092 2.8304-.6324.9672-.9667 2.086-.9667 3.2356v6.4363c0 1.1813.942 2.1548 2.1417 2.2637v-8.4762a.6642.6642 0 1 1 1.3284 0v18.589h2.0297v-9.2402a.6642.6642 0 1 1 1.3284 0v9.2402h2.3655v-18.589a.6642.6642 0 0 1 .6642-.6642z" fill-rule="evenodd"/>
    </symbol>

    <symbol id="microphone" viewBox="0 0 36 36">
      <path d="M18.2263 1c4.1742 0 7.5701 3.396 7.5701 7.5701V17.07c0 4.1741-3.396 7.5701-7.5701 7.5701-4.1742 0-7.5701-3.396-7.5701-7.57V8.57C10.6562 4.396 14.0522 1 18.2263 1zm-6.242 9.8288v1.3272h12.484v-1.3271h-1.7486a.664.664 0 1 1 0-1.3282h1.7486v-.9306a6.325 6.325 0 0 0-.013-.3966h-1.7356a.664.664 0 1 1 0-1.328h1.5061c-.7502-2.6057-3.1557-4.5174-5.9995-4.5174-2.8439 0-5.2494 1.9117-5.9996 4.5172h1.5062a.664.664 0 1 1 0 1.3282h-1.7357a6.3282 6.3282 0 0 0-.013.3965v.9307h1.7487a.664.664 0 1 1 0 1.328h-1.7487zm5.9432 4.5155h6.5409V13.484h-12.484v3.586c0 3.4417 2.8 6.2419 6.2419 6.2419 3.4418 0 6.242-2.8 6.242-6.242v-.3975h-6.5408a.664.664 0 1 1 0-1.3281zm-2.1535.1946a.669.669 0 0 1 .1946.4694.669.669 0 0 1-.1946.4695.669.669 0 0 1-.4695.1946.669.669 0 0 1-.4695-.1946.669.669 0 0 1-.1946-.4695.669.669 0 0 1 .1946-.4694.669.669 0 0 1 .4695-.1946.669.669 0 0 1 .4695.1946zm12.0145-.8144a.664.664 0 0 1 .664.6641V17.07c0 5.4156-4.2317 9.8607-9.5621 10.2041v3.7196h4.025c1.1044 0 2.0031.8986 2.0031 2.0032v1.3391a.664.664 0 0 1-.664.6641H12.1982a.664.664 0 0 1-.664-.664v-1.3393c0-1.1045.8986-2.0031 2.0032-2.0031h4.0248V27.274C12.2318 26.9306 8 22.4855 8 17.0698V12.82a.664.664 0 1 1 1.3281 0v4.2498c0 4.9065 3.9917 8.8982 8.8982 8.8982 4.9065 0 8.8982-3.9917 8.8982-8.8982v-1.6812a.664.664 0 0 1 .664-.664zm-4.8732 17.5972h-9.378a.676.676 0 0 0-.6751.675v.6752h10.7282v-.6751a.6759.6759 0 0 0-.675-.6751zm5.3427-19.971a.6667.6667 0 0 1 .1946.4695.669.669 0 0 1-.1946.4695.669.669 0 0 1-.4695.1946.669.669 0 0 1-.4695-.1946.6703.6703 0 0 1-.1945-.4695.668.668 0 0 1 .1945-.4694.6663.6663 0 0 1 .4695-.1946c.1747 0 .346.0704.4695.1946z" fill-rule="evenodd"/>
    </symbol>

    <symbol id="barcode" viewBox="0 0 36 36">
      <path d="M1 2h4.25v20.1875H1V2zm29.75 0H35v20.1875h-4.25V2zM7.375 2H9.5v20.1875H7.375V2zm20.2139 24.024l6.0372 6.0372c.415.415.415 1.0874 0 1.5025a1.0591 1.0591 0 0 1-.7512.3113 1.0591 1.0591 0 0 1-.7513-.3113l-6.0372-6.0373c-1.6366 1.3099-3.7074 2.0986-5.9616 2.0986-5.2725 0-9.5625-4.29-9.5625-9.5625 0-1.5714.388-3.0516 1.0626-4.3609V2H18v8.7462c.6845-.1562 1.3938-.2462 2.1249-.2462h.0001V2h4.25v9.5092a9.5845 9.5845 0 0 1 2.125 1.4464V2h2.125v13.7021c.6745 1.3092 1.0624 2.7892 1.0624 4.3604 0 2.2542-.7886 4.325-2.0984 5.9615zm-7.464 1.476c4.101 0 7.4375-3.3364 7.4375-7.4375 0-4.1011-3.3364-7.4375-7.4375-7.4375-4.1012 0-7.4375 3.3364-7.4375 7.4375 0 4.1011 3.3363 7.4375 7.4375 7.4375zm-5.3124-7.4375c0-2.1773 1.3129-4.0435 3.1875-4.864v6.989h-2.739c-.2851-.6516-.4485-1.3683-.4485-2.125zM20.125 14.75c1.746 0 3.2816.8537 4.25 2.1542v5.2833h-4.25V14.75z" fill-rule="evenodd"/>
    </symbol>

    <symbol id="face" viewBox="0 0 36 36">
      <path d="M8.5833 1c.322 0 .5833.2614.5833.5834a.5835.5835 0 0 1-.5834.5833H2.75a.5835.5835 0 0 0-.5833.5833v5.8333a.582.582 0 0 1-.1709.4124.582.582 0 0 1-.4124.171.582.582 0 0 1-.4124-.171A.582.582 0 0 1 1 8.5833V2.75c.0012-.966.784-1.7488 1.75-1.75h5.8333zM34.25 1c.966.0012 1.7488.784 1.75 1.75v5.8332a.5835.5835 0 0 1-.5834.5834.5835.5835 0 0 1-.5833-.5834V2.75a.5835.5835 0 0 0-.5833-.5833h-5.8333a.5835.5835 0 0 1-.5833-.5833c0-.322.2613-.5833.5833-.5833H34.25zm1.5791 27.0043a.5816.5816 0 0 1 .1709.4123V34.25c-.0012.966-.784 1.7489-1.75 1.75h-5.8332a.5835.5835 0 0 1-.5834-.5833c0-.322.2614-.5833.5834-.5833H34.25a.5835.5835 0 0 0 .5833-.5833v-5.8333a.582.582 0 0 1 .1709-.4124.582.582 0 0 1 .4124-.171.582.582 0 0 1 .4124.171zm-27.2458 6.829c.322 0 .5833.2614.5833.5834A.5835.5835 0 0 1 8.5833 36H2.75c-.966-.0012-1.7488-.784-1.75-1.75v-5.8333c0-.322.2614-.5833.5834-.5833s.5833.2613.5833.5833V34.25c0 .322.2613.5833.5833.5833h5.8333zM11.5 20.9523l3.2923 2.8806L13.5417 25.5H11.5v-4.5477zm15.1305-4.7565l1.3137.3279-2.1338 2.5596h-3.7025l.3961-2.3724 4.1265-.515zM13.5417 26.6667l1.1078 1.477-2.3509.8802c-.1242-.1154-.2474-.231-.3593-.3447a11.3101 11.3101 0 0 1-.4393-.4755v-1.537h2.0417zM16.5744 29h1.3423v2.4156L16.5744 29zm-3.686-15.75l1.1053 2.2225-3.077-.3844V13.25h1.9716zm2.9866 11.0833h2.0417v3.5H15.875l-1.3125-1.75 1.3125-1.75zm-.557 4.8062l2.1717 3.9095a3.1792 3.1792 0 0 1-1.6036-.9356 25.1142 25.1142 0 0 0-2.023-1.7617c-.1867-.1517-.374-.3046-.56-.458l2.0148-.7542zM8.6002 13.25H9.75v1.8981l-1.1205.28c-.0024-.0029-.0024-.007-.0041-.0099-.007-.0116-.017-.0198-.0245-.0309-.0188-.6731-.0228-1.407-.0006-2.1373zm-1.039 4.4625c.0035.0292.2351 1.9174.399 3.7014a.4621.4621 0 0 1-.2555-.2054 4.1942 4.1942 0 0 1-.4993-1.2792c-.066-.2357-.1313-.4702-.2083-.693l-.1009-.2888c-.262-.6843-.4649-1.3901-.6067-2.1088a1.3975 1.3975 0 0 1 .1167-1.0552.6642.6642 0 0 1 .556-.1955.8883.8883 0 0 1 .4853.2333c.0403 1.0466.105 1.7973.1137 1.8912zm6.9347-1.0016l.396 2.3724h-3.7024l-2.1338-2.5596 1.3137-.3279 4.1265.5151zm16.096-.928c.1778.3225.2204.7034.1177 1.0575a12.8414 12.8414 0 0 1-.606 2.107l-.101.2887c-.0763.2223-.1423.4574-.2082.693a4.1953 4.1953 0 0 1-.4975 1.2775.4658.4658 0 0 1-.2573.2077c.1639-1.7856.396-3.6786.4007-3.7205.0076-.087.0724-.8313.112-1.872a.8885.8885 0 0 1 .4854-.2332.663.663 0 0 1 .5542.1943zm-3.9253 4.0955l1.5616-1.8731c-.0857.7227-.2572 2.2236-.3797 3.619a.5607.5607 0 0 0-.0094.1032c-.074.8598-.1272 1.6672-.1272 2.2091a5.608 5.608 0 0 1-1.0453 2.7166v-6.7748zm-17.895-1.873l1.5617 1.873v6.7749a5.605 5.605 0 0 1-1.0454-2.7166c0-.5425-.053-1.3498-.1271-2.2091a.5565.5565 0 0 0-.0094-.1032c-.123-1.4018-.2952-2.908-.3797-3.619zm5.4198-4.7554h2.9056l-1.9367 1.9478-.9689-1.9478zm1.2407 7l2.4845.9929v1.9238h-2.114L12.4695 20.25h2.9627zm3.6511-6.1693l2.292 2.3047-.4801 2.877-1.8119.724v-5.9057zm2.6 15.0581l2.0142.7543c-.1867.154-.3745.3068-.5612.4585a25.335 25.335 0 0 0-2.0218 1.761 3.1864 3.1864 0 0 1-1.6041.9363l2.1728-3.91zM19.9028 13.25h2.9056l-.969 1.9478L19.903 13.25zm3.5554 13.4167H25.5v1.537a10.9258 10.9258 0 0 1-.4386.4749c-.112.1143-.2351.2298-.36.3453l-2.3508-.8802 1.1078-1.477zm-1.2506-2.8338L25.5 20.9523V25.5h-2.0417l-1.2506-1.6671zM19.0833 29h1.3423l-1.3423 2.4156V29zm9.3164-15.75c.0222.7315.0187 1.4647.0001 2.1367-.0076.0117-.0175.0198-.025.0315-.0024.003-.0024.007-.0042.01l-1.1206-.28V13.25h1.1497zm-.6276-3.9357a8.3708 8.3708 0 0 1 .5663 2.769H8.662a8.3441 8.3441 0 0 1 .5664-2.769c1.0273-2.0866 4.2426-5.3976 8.4963-5.3976h1.5505c4.2537 0 7.469 3.311 8.4969 5.3976zm-12.1474 7.0711l2.292-2.3047v5.9056l-1.8119-.7239-.48-2.877zm5.5003 7.948l1.3125 1.75-1.3125 1.75h-2.0417v-3.5h2.0417zM24.1117 13.25h1.9716v1.8381l-3.077.3844 1.1054-2.2225zm-2.544 7h2.9628l-3.3332 2.9167h-2.114v-1.9238l2.4845-.9929z" fill-rule="evenodd"/>
    </symbol>

    <symbol id="purchase" viewBox="0 0 36 36">
      <path d="M34.2952 11.3594c.94 0 1.7048.765 1.7048 1.7047a.6076.6076 0 0 1-.0138.1286l-2.347 10.7098c-.0378.9072-.7874 1.6333-1.7035 1.6333H14.0912c-.9402 0-1.7049-.765-1.7049-1.7049 0-.043.0047-.0864.0138-.1285l2.347-10.7097c.0379-.9072.7875-1.6333 1.7035-1.6333h17.8446zm-19.646 7.6884l-1.0597 4.8358a.5052.5052 0 0 0 .5017.452h17.8447a.5054.5054 0 0 0 .5046-.5047c0-.043.0047-.0864.0138-.1285l1.0198-4.6546h-18.825zm1.0384-4.7395h18.825l.284-1.2967a.5052.5052 0 0 0-.5016-.452H16.4504a.5054.5054 0 0 0-.5046.5047.6076.6076 0 0 1-.0138.1285l-.2444 1.1155zm18.0496 3.539l.5125-2.3386H15.4245l-.5125 2.3387h18.8252zm-20.7507-5.8981a.6002.6002 0 0 1 0 1.2003H8.2678a.6002.6002 0 0 1 0-1.2003h4.7187zM19.4745 9a.6002.6002 0 0 1 0 1.2003H11.217a.6002.6002 0 0 1 0-1.2003h8.2576zm9.4372 17.6947a.6002.6002 0 0 1 0 1.2003h-8.2576a.6002.6002 0 0 1 0-1.2003h8.2576zm-10.6168 0a.6002.6002 0 0 1 0 1.2003H3.5493a.6002.6002 0 0 1 0-1.2003H18.295zM8.2678 9a.6002.6002 0 0 1 0 1.2003H5.9086a.6002.6002 0 0 1 0-1.2003h2.3592zm4.1289 6.4881a.6002.6002 0 0 1 0 1.2003H9.4475a.6002.6002 0 0 1 0-1.2003h2.9492zm-6.4881-3.539a.6002.6002 0 0 1 0 1.2004H.6a.6002.6002 0 0 1 0-1.2003h5.3085z" fill-rule="evenodd"/>
    </symbol>

    <symbol id="download" viewBox="0 0 36 36">
      <path d="M25.2149 26.3957c.2878-.2979.2878-.7776 0-1.0647-.2979-.2979-.7776-.2979-1.0647 0l-5.3988 5.3887V12.9139c0-.4153-.33-.756-.7454-.756-.4153 0-.756.3407-.756.756V30.719l-5.388-5.3887c-.298-.2979-.767-.2979-1.0648 0-.2878.2878-.2878.7669 0 1.0647l6.6768 6.6769c.2878.2878.7669.2878 1.0647 0l6.6762-6.6762zm-9.488-5.3565c.4046 0 .7455.3301.7455.7454 0 .4153-.3409.7561-.7454.7561H8.539c-2.0765 0-3.961-.8413-5.3244-2.2146C1.8413 18.9628 1 17.0782 1 15.0018c0-2.0765.8413-3.9617 2.2146-5.3243C4.578 8.3142 6.4625 7.4622 8.539 7.4622c.5005 0 1.001.053 1.4908.1596.277.053.5427.1175.7984.2027.7983-1.374 1.9382-2.524 3.2907-3.3653C15.6096 3.5327 17.3667 3 19.2512 3c2.577 0 4.9305 1.0117 6.6769 2.6514 1.576 1.48 2.6514 3.4612 2.9814 5.6973.1597-.0215.3301-.0215.4898-.0215 1.5438 0 2.95.628 3.961 1.6397C34.3828 13.9786 35 15.3842 35 16.9286c0 1.5545-.6179 2.95-1.6397 3.9718-1.0117 1.0117-2.4172 1.6396-3.961 1.6396h-9.1149c-.4153 0-.7453-.3408-.7453-.756 0-.4154.33-.7454.7453-.7454H29.4c1.1284 0 2.1616-.4583 2.8963-1.2036.7453-.7454 1.2036-1.7679 1.2036-2.907 0-1.1285-.4583-2.1617-1.2036-2.8963-.7347-.7454-1.7679-1.2036-2.8963-1.2036-.1704 0-.3408.0107-.4898.0322-.1597.0107-.3193.0422-.4582.0744-.053.0108-.1067.0215-.1597.0322-.4153.0215-.7668-.2979-.7984-.7131-.1274-2.1617-1.0969-4.1107-2.5876-5.5055-1.48-1.3948-3.4713-2.2468-5.6544-2.2468-1.5974 0-3.0882.4582-4.3448 1.2351-1.3096.7984-2.3642 1.9597-3.056 3.3438a.766.766 0 0 1-.9687.3623c-.3623-.1597-.7454-.2771-1.1392-.3623a6.2385 6.2385 0 0 0-1.2036-.1174c-1.6719 0-3.1734.6816-4.2703 1.7678-1.0862 1.097-1.7678 2.6092-1.7678 4.2703 0 1.6719.6816 3.1734 1.7678 4.2703 1.097 1.0862 2.5984 1.7678 4.2703 1.7678h7.1874z" fill-rule="evenodd"/>
    </symbol>

    <symbol id="shield" viewBox="0 0 36 36">
      <path d="M33 20.3613C33 28.4275 26.2724 35 18 35 9.7276 35 3 28.4345 3 20.3613V7.6055c0-.3405.2065-.6531.534-.7851l14.1314-5.7527a.8602.8602 0 0 1 .6692 0l14.1315 5.7527c.3203.132.5339.4446.5339.785v12.756zM18 33.2978c7.3113 0 13.2558-5.8082 13.2558-12.9365V8.1752L18 2.7769 4.7442 8.1752v12.1861c0 7.1353 5.9445 12.9365 13.2558 12.9365zm3.5168-18.7308c.3418-.3335.897-.3265 1.2317 0 .3417.3335.3417.8685 0 1.202l-5.8306 5.6553a.874.874 0 0 1-.6123.2501c-.2278 0-.4485-.0833-.6193-.25l-2.4348-2.39c-.3417-.3336-.3417-.8685 0-1.202.3418-.3335.89-.3335 1.2317 0l1.8224 1.7925 5.2112-5.0579z" fill-rule="evenodd"/>
    </symbol>

  </defs>
</svg>
