<?xml version="1.0" encoding="UTF-8"?>
<svg width="50px" height="18px" viewBox="0 0 50 18" version="1.1" xmlns="http://www.w3.org/2000/svg" xmlns:xlink="http://www.w3.org/1999/xlink">
    <!-- Generator: Sketch 51.3 (57544) - http://www.bohemiancoding.com/sketch -->
    <title>topcoder logo</title>
    <desc>Created with Sketch.</desc>
    <defs></defs>
    <g id="topcoder-logo" stroke="none" stroke-width="1" fill="none" fill-rule="evenodd">
        <path d="M12.6321081,5.81363071 C6.79837156,4.71594257 1.30146833,4.81045945 0.197491401,7.88312427 C-0.580894903,10.0491942 1.0117184,13.3173222 3.74571988,16.5425674 C4.5520065,17.4936055 5.48488518,17.7968179 6.36132888,17.790332 C7.171748,13.5615381 10.4044807,9.04262076 12.6321081,5.81363071 Z" id="segment-1" fill="#26ADE9"></path>
        <path d="M26.1025001,9.09861255 C29.0978016,7.82566764 33.1723062,6.54982087 37.0939518,5.81242852 C37.2945985,6.01588045 37.4918754,6.22449123 37.6863954,6.43664872 C34.0487184,2.46562807 29.3321446,0.0174338602 24.8591038,0.0174338602 C20.6253072,0.0174338602 16.1730968,2.21058768 12.6242557,5.81242852 C16.5459013,6.54982087 20.6204059,7.82566764 23.6157075,9.09861255 C23.9946385,9.25982644 24.4124736,9.43297017 24.8591038,9.61643158 C25.3057339,9.43297017 25.723569,9.25982644 26.1025001,9.09861255 Z" id="segment-2" fill="#60C700"></path>
        <path d="M12.630615,5.81770795 C9.55187007,8.97801669 6.35496958,15.1687846 6.35496958,17.7868999 C7.41715419,17.7868995 8.68474095,17.2485115 9.59901,16.7521998 C14.1548563,14.2790548 18.8632374,10.2675878 24.8327202,9.61485114 C21.8014331,8.226465 15.9496071,6.285106 12.630615,5.81770795 Z" id="segment-3" fill="#0B71E6"></path>
        <path d="M37.1030343,5.80714887 C42.9239214,4.71632704 48.4013335,4.81652047 49.5031327,7.88312427 C50.281519,10.0491942 48.6889057,13.3173222 45.9549043,16.5425674 C45.2180301,17.4117316 44.375422,17.7398102 43.5667898,17.7849055 C41.0311592,12.2396628 40.5023887,11.2414278 37.1030343,5.80714887 Z" id="segment-4" fill="#FB7D22"></path>
        <path d="M37.0978688,5.8106459 C40.1766138,8.97095464 43.5769342,17.7868999 43.5769342,17.7868999 C42.1077108,17.8517557 40.6798604,16.9922324 40.2590628,16.7386846 C33.9410461,12.9318215 30.0097633,10.327617 24.8460026,9.61643935 C27.9221254,8.08099465 34.6371922,6.13270325 37.0978688,5.8106459 Z" id="segment-5" fill="#FFF100"></path>
    </g>
</svg>